REM DIRINDEX 1\2,1\3,1\4,1\5,1\6
REM DIRNAME folder01,folder02,folder03,folder04,folder05,folder06
TITLE ""
FILE "DISC5Track13.mp3" MP3
  TRACK 01 AUDIO
    TITLE "0:"
    INDEX 01 00:00:00
  TRACK 02 AUDIO
    TITLE "2:cjc129_4233"
    INDEX 01 00:03:14
  TRACK 03 AUDIO
    TITLE "0:"
    INDEX 01 00:08:64
  TRACK 04 AUDIO
    TITLE "3:cjc129_4234"
    INDEX 01 00:10:02
  TRACK 05 AUDIO
    TITLE "0:"
    INDEX 01 00:12:18
  TRACK 06 AUDIO
    TITLE "5:cjc129_4235"
    INDEX 01 00:12:50
  TRACK 07 AUDIO
    TITLE "0:"
    INDEX 01 00:17:27
  TRACK 08 AUDIO
    TITLE "4:cjc129_4236"
    INDEX 01 00:18:13
  TRACK 09 AUDIO
    TITLE "0:"
    INDEX 01 00:20:28
  TRACK 10 AUDIO
    TITLE "6:cjc129_4237"
    INDEX 01 00:20:61
  TRACK 11 AUDIO
    TITLE "0:"
    INDEX 01 00:24:71
  TRACK 12 AUDIO
    TITLE "3:cjc129_4238"
    INDEX 01 00:26:46
  TRACK 13 AUDIO
    TITLE "0:"
    INDEX 01 00:28:08
  TRACK 14 AUDIO
    TITLE "5:cjc129_4239"
    INDEX 01 00:28:41
  TRACK 15 AUDIO
    TITLE "0:"
    INDEX 01 00:31:22
  TRACK 16 AUDIO
    TITLE "4:cjc129_4240"
    INDEX 01 00:32:13
  TRACK 17 AUDIO
    TITLE "0:"
    INDEX 01 00:33:50
  TRACK 18 AUDIO
    TITLE "6:cjc129_4241"
    INDEX 01 00:34:08
  TRACK 19 AUDIO
    TITLE "0:"
    INDEX 01 00:37:40
  TRACK 20 AUDIO
    TITLE "3:cjc129_4242"
    INDEX 01 00:39:19
  TRACK 21 AUDIO
    TITLE "0:"
    INDEX 01 00:40:62
  TRACK 22 AUDIO
    TITLE "5:cjc129_4243"
    INDEX 01 00:41:16
  TRACK 23 AUDIO
    TITLE "0:"
    INDEX 01 00:45:67
  TRACK 24 AUDIO
    TITLE "4:cjc129_4244"
    INDEX 01 00:46:62
  TRACK 25 AUDIO
    TITLE "0:"
    INDEX 01 00:48:28
  TRACK 26 AUDIO
    TITLE "6:cjc129_4245"
    INDEX 01 00:48:61
  TRACK 27 AUDIO
    TITLE "0:"
    INDEX 01 00:52:47
  TRACK 28 AUDIO
    TITLE "3:cjc129_4246"
    INDEX 01 00:54:21
  TRACK 29 AUDIO
    TITLE "0:"
    INDEX 01 00:57:62
  TRACK 30 AUDIO
    TITLE "5:cjc129_4247"
    INDEX 01 00:58:18
  TRACK 31 AUDIO
    TITLE "0:"
    INDEX 01 01:02:73
  TRACK 32 AUDIO
    TITLE "4:cjc129_4248"
    INDEX 01 01:03:67
  TRACK 33 AUDIO
    TITLE "0:"
    INDEX 01 01:07:35
  TRACK 34 AUDIO
    TITLE "6:cjc129_4249"
    INDEX 01 01:07:64
  TRACK 35 AUDIO
    TITLE "0:"
    INDEX 01 01:12:19
  TRACK 36 AUDIO
    TITLE "3:cjc129_4250"
    INDEX 01 01:13:71
  TRACK 37 AUDIO
    TITLE "0:"
    INDEX 01 01:15:19
  TRACK 38 AUDIO
    TITLE "5:cjc129_4251"
    INDEX 01 01:15:52
  TRACK 39 AUDIO
    TITLE "0:"
    INDEX 01 01:20:26
  TRACK 40 AUDIO
    TITLE "4:cjc129_4252"
    INDEX 01 01:21:20
  TRACK 41 AUDIO
    TITLE "0:"
    INDEX 01 01:22:44
  TRACK 42 AUDIO
    TITLE "6:cjc129_4253"
    INDEX 01 01:23:01
  TRACK 43 AUDIO
    TITLE "0:"
    INDEX 01 01:27:03
  TRACK 44 AUDIO
    TITLE "3:cjc129_4254"
    INDEX 01 01:28:55
  TRACK 45 AUDIO
    TITLE "0:"
    INDEX 01 01:30:24
  TRACK 46 AUDIO
    TITLE "5:cjc129_4255"
    INDEX 01 01:30:56
  TRACK 47 AUDIO
    TITLE "0:"
    INDEX 01 01:35:02
  TRACK 48 AUDIO
    TITLE "4:cjc129_4256"
    INDEX 01 01:35:71
  TRACK 49 AUDIO
    TITLE "0:"
    INDEX 01 01:37:38
  TRACK 50 AUDIO
    TITLE "6:cjc129_4257"
    INDEX 01 01:37:71
  TRACK 51 AUDIO
    TITLE "0:"
    INDEX 01 01:43:31
  TRACK 52 AUDIO
    TITLE "3:cjc129_4258"
    INDEX 01 01:45:08
  TRACK 53 AUDIO
    TITLE "0:"
    INDEX 01 01:46:53
  TRACK 54 AUDIO
    TITLE "5:cjc129_4259"
    INDEX 01 01:47:13
  TRACK 55 AUDIO
    TITLE "0:"
    INDEX 01 01:52:61
  TRACK 56 AUDIO
    TITLE "4:cjc129_4260"
    INDEX 01 01:53:53
  TRACK 57 AUDIO
    TITLE "0:"
    INDEX 01 01:55:26
  TRACK 58 AUDIO
    TITLE "6:cjc129_4261"
    INDEX 01 01:55:58
  TRACK 59 AUDIO
    TITLE "0:"
    INDEX 01 01:59:20
  TRACK 60 AUDIO
    TITLE "3:cjc129_4262"
    INDEX 01 02:00:72
  TRACK 61 AUDIO
    TITLE "0:"
    INDEX 01 02:02:52
  TRACK 62 AUDIO
    TITLE "5:cjc129_4263"
    INDEX 01 02:03:10
  TRACK 63 AUDIO
    TITLE "0:"
    INDEX 01 02:08:45
  TRACK 64 AUDIO
    TITLE "4:cjc129_4264"
    INDEX 01 02:09:34
  TRACK 65 AUDIO
    TITLE "0:"
    INDEX 01 02:11:15
  TRACK 66 AUDIO
    TITLE "6:cjc129_4265"
    INDEX 01 02:11:51
  TRACK 67 AUDIO
    TITLE "0:"
    INDEX 01 02:15:31
